<?xml version="1.0" encoding="utf-8"?>
<!-- Generator: Adobe Illustrator 17.0.0, SVG Export Plug-In . SVG Version: 6.00 Build 0)  -->
<!DOCTYPE svg PUBLIC "-//W3C//DTD SVG 1.1//EN" "http://www.w3.org/Graphics/SVG/1.1/DTD/svg11.dtd">
<svg version="1.1" xmlns="http://www.w3.org/2000/svg" xmlns:xlink="http://www.w3.org/1999/xlink" x="0px" y="0px" width="310px"
	 height="310px" viewBox="-98.781 -17.245 310 310" enable-background="new -98.781 -17.245 310 310" xml:space="preserve">
<g id="Layer_1">
</g>
<g id="Layer_2">
	<g>
		<path fill="#080505" d="M193.049,274.585h-273.66V0.926h273.66V274.585z M-67.099,261.073h246.636V14.438H-67.099V261.073z"/>
		<path fill="#080505" d="M91.26,75.503c12.972,0,15.674,0,15.674,0V42.36c0,0,3.783-2.162-23.241-2.162
			S31.806,50.939,31.806,88.267c0,3.552,0,7.76,0,12.465H5.322v32.873h26.484c0,45.617,0,101.708,0,101.708h44.32
			c0,0,0-61.488,0-101.708h30.989v-32.873H76.132C76.258,82.486,78.656,75.503,91.26,75.503z"/>
	</g>
</g>
</svg>
