<?xml version="1.0" encoding="utf-8"?>
<!-- Generator: Adobe Illustrator 16.0.0, SVG Export Plug-In . SVG Version: 6.00 Build 0)  -->
<!DOCTYPE svg PUBLIC "-//W3C//DTD SVG 1.1//EN" "http://www.w3.org/Graphics/SVG/1.1/DTD/svg11.dtd">
<svg version="1.1" id="Layer_1" xmlns="http://www.w3.org/2000/svg" xmlns:xlink="http://www.w3.org/1999/xlink" x="0px" y="0px"
	 width="93px" height="40px" viewBox="45.007 24.435 93 40" enable-background="new 45.007 24.435 93 40" xml:space="preserve">
<g>
	<path fill="#FFFFFF" d="M127.039,54.097c0-1.345,0.687-2.257,1.683-2.257c1.008,0,1.682,0.912,1.682,2.257
		c0,1.331-0.674,2.231-1.682,2.231C127.724,56.329,127.039,55.428,127.039,54.097 M126.021,54.097c0,1.934,1.27,3.047,2.699,3.047
		c1.429,0,2.698-1.113,2.698-3.047c0-1.957-1.27-3.072-2.698-3.072C127.291,51.024,126.021,52.14,126.021,54.097 M122.792,55.825
		c0,0.852,0.299,1.318,1.043,1.318c0.265,0,0.433-0.035,0.564-0.097l-0.133-0.741c-0.107,0.022-0.156,0.022-0.218,0.022
		c-0.143,0-0.274-0.119-0.274-0.433v-7.438h-0.982V55.825z M119.132,55.825c0,0.852,0.302,1.318,1.043,1.318
		c0.265,0,0.433-0.035,0.564-0.097l-0.133-0.741c-0.107,0.022-0.156,0.022-0.217,0.022c-0.144,0-0.275-0.119-0.275-0.433v-7.438
		h-0.982V55.825L119.132,55.825z M115.582,57h0.982v-5.832h-0.982V57z M116.083,49.967c0.385,0,0.687-0.264,0.687-0.635
		c0-0.383-0.302-0.635-0.687-0.635c-0.383,0-0.682,0.252-0.682,0.635C115.402,49.704,115.701,49.967,116.083,49.967 M111.093,55.202
		c0,1.15,0.421,1.941,1.666,1.941c0.361,0,0.757-0.107,1.08-0.216l-0.19-0.743c-0.191,0.071-0.455,0.155-0.66,0.155
		c-0.672,0-0.9-0.407-0.9-1.127v-3.241h1.572v-0.804h-1.572v-1.631h-0.825l-0.121,1.631l-0.91,0.062v0.742h0.862L111.093,55.202
		L111.093,55.202z M106.162,57h0.982v-3.744c0.396-0.983,0.983-1.344,1.477-1.344c0.24,0,0.371,0.035,0.562,0.096l0.192-0.862
		c-0.192-0.084-0.373-0.121-0.625-0.121c-0.66,0-1.26,0.469-1.655,1.199h-0.035l-0.084-1.056h-0.814V57z M99.644,54.097
		c0-1.345,0.684-2.257,1.682-2.257c1.008,0,1.68,0.912,1.68,2.257c0,1.331-0.672,2.231-1.68,2.231
		C100.328,56.329,99.644,55.428,99.644,54.097 M98.625,54.097c0,1.934,1.271,3.047,2.701,3.047c1.428,0,2.699-1.113,2.699-3.047
		c0-1.957-1.271-3.072-2.699-3.072C99.896,51.024,98.625,52.14,98.625,54.097 M92.96,53.065v-3.133h1.283
		c1.357,0,2.041,0.37,2.041,1.512c0,1.117-0.66,1.621-2.041,1.621H92.96z M91.953,57h1.008v-3.121h1.416
		c1.717,0,2.904-0.778,2.904-2.437c0-1.729-1.164-2.313-2.904-2.313h-2.424V57z M82.353,54.097c0-1.345,0.684-2.257,1.68-2.257
		c1.008,0,1.68,0.912,1.68,2.257c0,1.331-0.672,2.231-1.68,2.231C83.037,56.329,82.353,55.428,82.353,54.097 M81.333,54.097
		c0,1.934,1.271,3.047,2.699,3.047s2.699-1.113,2.699-3.047c0-1.957-1.271-3.072-2.699-3.072S81.333,52.14,81.333,54.097 M78.214,57
		h0.982v-5.832h-0.982V57z M78.716,49.967c0.384,0,0.685-0.264,0.685-0.635c0-0.383-0.301-0.635-0.685-0.635
		c-0.383,0-0.682,0.252-0.682,0.635C78.035,49.704,78.333,49.967,78.716,49.967 M73.533,54.493c-0.673,0-1.236-0.539-1.236-1.393
		c0-0.853,0.552-1.355,1.236-1.355c0.684,0,1.237,0.504,1.237,1.355C74.771,53.954,74.205,54.493,73.533,54.493 M71.123,58.116
		c0,1.01,0.981,1.572,2.41,1.572c1.812,0,2.951-0.937,2.951-2.017c0-0.973-0.684-1.391-2.039-1.391h-1.128
		c-0.793,0-1.033-0.267-1.033-0.64c0-0.322,0.168-0.516,0.372-0.694c0.264,0.133,0.589,0.204,0.877,0.204
		c1.189,0,2.135-0.778,2.135-2.028c0-0.492-0.203-0.937-0.479-1.199h1.199v-0.756h-2.027c-0.216-0.084-0.504-0.146-0.828-0.146
		c-1.189,0-2.195,0.806-2.195,2.076c0,0.697,0.371,1.262,0.754,1.572v0.049c-0.299,0.203-0.633,0.586-0.633,1.078
		c0,0.457,0.228,0.77,0.515,0.949v0.047C71.445,57.157,71.123,57.624,71.123,58.116 M71.984,57.985c0-0.338,0.18-0.687,0.6-0.984
		c0.252,0.072,0.529,0.096,0.758,0.096h1.009c0.756,0,1.177,0.18,1.177,0.719c0,0.613-0.733,1.189-1.849,1.189
		C72.62,59.004,71.984,58.61,71.984,57.985 M66.922,57h0.982v-3.744c0.396-0.983,0.984-1.344,1.477-1.344
		c0.239,0,0.371,0.035,0.563,0.096l0.191-0.862c-0.191-0.084-0.372-0.121-0.625-0.121c-0.658,0-1.26,0.469-1.654,1.199H67.82
		l-0.083-1.056h-0.815V57z M60.896,53.653c0.119-1.178,0.864-1.851,1.681-1.851c0.913,0,1.441,0.66,1.441,1.851H60.896z
		 M59.938,54.097c0,1.907,1.234,3.047,2.795,3.047c0.793,0,1.417-0.275,1.92-0.599l-0.349-0.647
		c-0.431,0.274-0.898,0.455-1.451,0.455c-1.116,0-1.873-0.793-1.945-2.054h3.936c0.024-0.143,0.037-0.336,0.037-0.539
		c0-1.668-0.838-2.735-2.327-2.735C61.221,51.024,59.938,52.188,59.938,54.097 M52.918,55.981c0.686,0.707,1.645,1.162,2.748,1.162
		c1.656,0,2.688-0.994,2.688-2.242c0-1.164-0.707-1.705-1.619-2.103l-1.129-0.479c-0.612-0.266-1.31-0.553-1.31-1.309
		c0-0.709,0.588-1.152,1.478-1.152c0.721,0,1.309,0.287,1.789,0.744l0.526-0.647c-0.552-0.576-1.379-0.972-2.315-0.972
		c-1.428,0-2.482,0.888-2.482,2.089c0,1.149,0.862,1.715,1.595,2.026l1.129,0.492c0.743,0.336,1.319,0.588,1.319,1.393
		c0,0.769-0.61,1.283-1.645,1.283c-0.828,0-1.607-0.395-2.171-0.981L52.918,55.981z"/>
	<path fill="#FFFFFF" d="M127.843,36.417c0-0.744,0.66-1.225,2.617-1.465v1.621c-0.563,0.504-1.03,0.779-1.596,0.779
		C128.287,37.352,127.843,37.077,127.843,36.417 M126.873,36.489c0,1.045,0.73,1.654,1.715,1.654c0.722,0,1.369-0.383,1.935-0.838
		h0.022l0.084,0.693h0.814v-3.576c0-1.451-0.599-2.396-2.025-2.396c-0.938,0-1.754,0.406-2.293,0.754l0.396,0.684
		c0.457-0.312,1.057-0.625,1.742-0.625c0.946,0,1.198,0.721,1.198,1.465C127.976,34.581,126.873,35.215,126.873,36.489
		 M121.714,37.999h0.98v-3.744c0.396-0.982,0.984-1.342,1.477-1.342c0.24,0,0.373,0.035,0.564,0.094l0.19-0.861
		c-0.19-0.084-0.37-0.119-0.622-0.119c-0.66,0-1.261,0.467-1.656,1.197h-0.037l-0.084-1.055h-0.812V37.999z M113.517,35.866
		c0,1.486,0.551,2.277,1.787,2.277c0.805,0,1.381-0.42,1.922-1.055h0.034l0.085,0.91h0.813v-5.83h-0.982v4.141
		c-0.553,0.684-0.973,0.984-1.571,0.984c-0.771,0-1.095-0.469-1.095-1.561v-3.564h-0.993V35.866z M108.201,36.202
		c0,1.15,0.42,1.941,1.666,1.941c0.361,0,0.758-0.107,1.08-0.215l-0.191-0.744c-0.19,0.072-0.455,0.156-0.659,0.156
		c-0.673,0-0.9-0.408-0.9-1.127v-3.242h1.572v-0.803h-1.572v-1.631h-0.826l-0.119,1.631l-0.912,0.061v0.742h0.863L108.201,36.202
		L108.201,36.202z M100.546,35.096c0,1.934,1.187,3.047,2.732,3.047c0.697,0,1.369-0.287,1.896-0.754l-0.442-0.648
		c-0.349,0.312-0.816,0.588-1.369,0.588c-1.066,0-1.799-0.9-1.799-2.232c0-1.344,0.768-2.258,1.824-2.258
		c0.467,0,0.827,0.217,1.176,0.518l0.492-0.637c-0.396-0.371-0.938-0.693-1.705-0.693C101.851,32.026,100.546,33.139,100.546,35.096
		 M93.968,34.653c0.119-1.178,0.865-1.85,1.681-1.85c0.914,0,1.44,0.66,1.44,1.85H93.968z M93.009,35.096
		c0,1.908,1.234,3.047,2.796,3.047c0.793,0,1.418-0.275,1.92-0.598l-0.349-0.648c-0.432,0.275-0.897,0.455-1.451,0.455
		c-1.116,0-1.873-0.793-1.944-2.053h3.936c0.023-0.143,0.035-0.336,0.035-0.539c0-1.668-0.838-2.734-2.326-2.734
		C94.292,32.026,93.009,33.188,93.009,35.096 M88.089,36.202c0,1.15,0.42,1.941,1.666,1.941c0.359,0,0.756-0.107,1.08-0.215
		l-0.19-0.744c-0.193,0.072-0.457,0.156-0.66,0.156c-0.672,0-0.9-0.408-0.9-1.127v-3.242h1.572v-0.803h-1.572v-1.631h-0.826
		l-0.118,1.631l-0.912,0.061v0.742h0.862L88.089,36.202L88.089,36.202z M83.385,37.999h0.98v-5.83h-0.98V37.999z M83.888,30.967
		c0.385,0,0.684-0.264,0.684-0.635c0-0.383-0.299-0.635-0.684-0.635c-0.384,0-0.683,0.252-0.683,0.635
		C83.207,30.704,83.505,30.967,83.888,30.967 M75.189,35.866c0,1.486,0.551,2.277,1.787,2.277c0.805,0,1.381-0.42,1.922-1.055h0.035
		l0.084,0.91h0.815v-5.83h-0.983v4.141c-0.552,0.684-0.972,0.984-1.572,0.984c-0.769,0-1.091-0.469-1.091-1.561v-3.564H75.19
		L75.189,35.866L75.189,35.866z M67.689,35.084c0-1.332,0.743-2.234,1.68-2.234c0.48,0,0.925,0.17,1.416,0.613v3.049
		c-0.479,0.541-0.947,0.805-1.487,0.805C68.277,37.317,67.689,36.477,67.689,35.084 M66.67,35.096c0,1.945,0.947,3.047,2.411,3.047
		c0.673,0,1.284-0.359,1.753-0.791l-0.049,1.031v2.076h0.996v-8.291H70.99l-0.096,0.551h-0.025
		c-0.527-0.455-0.995-0.693-1.668-0.693C67.869,32.026,66.67,33.2,66.67,35.096 M61.462,37.999h0.983v-3.744
		c0.396-0.982,0.983-1.342,1.476-1.342c0.239,0,0.372,0.035,0.563,0.094l0.191-0.861c-0.191-0.084-0.371-0.119-0.624-0.119
		c-0.659,0-1.26,0.467-1.655,1.197h-0.035l-0.084-1.055h-0.815V37.999z M57.837,37.999h1.057l-2.662-7.869h-1.129l-2.664,7.869
		h1.021l0.756-2.4h2.867L57.837,37.999z M54.466,34.797l0.385-1.201c0.275-0.877,0.527-1.74,0.779-2.652h0.049
		c0.252,0.912,0.504,1.775,0.779,2.652l0.37,1.201H54.466z"/>
</g>
</svg>
