<?xml version="1.0" encoding="utf-8"?>
<!-- Generator: Adobe Illustrator 17.0.0, SVG Export Plug-In . SVG Version: 6.00 Build 0)  -->
<!DOCTYPE svg PUBLIC "-//W3C//DTD SVG 1.1//EN" "http://www.w3.org/Graphics/SVG/1.1/DTD/svg11.dtd">
<svg version="1.1" id="Layer_1" xmlns="http://www.w3.org/2000/svg" xmlns:xlink="http://www.w3.org/1999/xlink" x="0px" y="0px"
	 width="310px" height="310px" viewBox="0 0 310 310" enable-background="new 0 0 310 310" xml:space="preserve">
<g id="Layer_1_1_">
</g>
<g id="Layer_2">
	<g>
		<path fill="#080505" d="M291.83,291.829H18.17V18.171h273.66V291.829z M31.682,278.318h246.636V31.683H31.682V278.318z"/>
	</g>
</g>
<path fill="#080505" d="M253.695,93.782c-7.262,3.221-15.067,5.398-23.259,6.377c8.362-5.012,14.783-12.948,17.806-22.405
	c-7.824,4.641-16.491,8.011-25.716,9.827c-7.387-7.871-17.912-12.789-29.559-12.789c-22.366,0-40.498,18.132-40.498,40.496
	c0,3.174,0.358,6.265,1.048,9.229c-33.657-1.689-63.497-17.811-83.47-42.312c-3.486,5.981-5.483,12.938-5.483,20.359
	c0,14.049,7.15,26.445,18.016,33.707c-6.638-0.21-12.883-2.032-18.343-5.065c-0.003,0.169-0.004,0.338-0.004,0.509
	c0,19.621,13.959,35.989,32.485,39.709c-3.398,0.925-6.976,1.42-10.669,1.42c-2.61,0-5.146-0.254-7.619-0.726
	c5.153,16.089,20.109,27.797,37.83,28.125c-13.86,10.861-31.321,17.335-50.294,17.335c-3.269,0-6.492-0.192-9.66-0.565
	c17.922,11.49,39.208,18.194,62.078,18.194c74.489,0,115.222-61.708,115.222-115.223c0-1.756-0.039-3.502-0.117-5.239
	C241.4,109.036,248.266,101.903,253.695,93.782z"/>
</svg>
