<?xml version="1.0" encoding="utf-8"?>
<!-- Generator: Adobe Illustrator 16.0.0, SVG Export Plug-In . SVG Version: 6.00 Build 0)  -->
<!DOCTYPE svg PUBLIC "-//W3C//DTD SVG 1.1//EN" "http://www.w3.org/Graphics/SVG/1.1/DTD/svg11.dtd">
<svg version="1.1" id="Layer_1" xmlns="http://www.w3.org/2000/svg" xmlns:xlink="http://www.w3.org/1999/xlink" x="0px" y="0px"
	 width="120.977px" height="46.129px" viewBox="0 0 120.977 46.129" enable-background="new 0 0 120.977 46.129"
	 xml:space="preserve">
<path fill="#080505" d="M6.928,7.787L6.359,5.955c-0.42-1.336-0.805-2.656-1.19-4.047H5.096c-0.385,1.391-0.77,2.711-1.188,4.047
	L3.32,7.787H6.928z M7.312,9.016H2.936L1.779,12.68H0.223L4.289,0.66h1.723l4.066,12.02H8.467L7.312,9.016z"/>
<path fill="#080505" d="M14.086,3.775h1.244l0.129,1.612h0.055c0.604-1.117,1.521-1.832,2.529-1.832
	c0.385,0,0.658,0.056,0.951,0.185l-0.293,1.317c-0.293-0.091-0.494-0.146-0.859-0.146c-0.752,0-1.65,0.549-2.254,2.051v5.717h-1.502
	V3.775z"/>
<path fill="#080505" d="M26.117,11.635c0.821,0,1.539-0.402,2.271-1.229V5.755C27.636,5.076,26.96,4.82,26.226,4.82
	c-1.428,0-2.563,1.373-2.563,3.407C23.662,10.353,24.559,11.635,26.117,11.635 M25.971,3.556c1.025,0,1.74,0.367,2.547,1.062h0.035
	l0.146-0.843h1.211v12.66h-1.521v-3.17l0.074-1.574c-0.715,0.658-1.65,1.207-2.676,1.207c-2.236,0-3.685-1.686-3.685-4.651
	C22.104,5.351,23.936,3.556,25.971,3.556"/>
<path fill="#080505" d="M34.961,3.775h1.52v5.441c0,1.666,0.494,2.381,1.668,2.381c0.916,0,1.558-0.458,2.4-1.502v-6.32h1.502v8.904
	h-1.246l-0.129-1.393h-0.055c-0.824,0.971-1.703,1.61-2.933,1.61c-1.887,0-2.729-1.208-2.729-3.479L34.961,3.775L34.961,3.775z"/>
<path fill="#080505" d="M47.232,3.775h1.502v8.904h-1.502V3.775z M46.959,0.973C46.959,0.387,47.416,0,48.002,0
	s1.045,0.387,1.045,0.973c0,0.568-0.459,0.971-1.045,0.971S46.959,1.541,46.959,0.973"/>
<path fill="#080505" d="M54.234,5.003h-1.317V3.867l1.391-0.093l0.187-2.49h1.262v2.49h2.399v1.229h-2.399v4.946
	c0,1.1,0.35,1.723,1.375,1.723c0.311,0,0.713-0.128,1.008-0.238l0.293,1.135c-0.494,0.166-1.098,0.33-1.647,0.33
	c-1.904,0-2.548-1.209-2.548-2.967V5.003H54.234z"/>
<path fill="#080505" d="M67.852,7.568c0-1.812-0.809-2.821-2.199-2.821c-1.245,0-2.383,1.025-2.565,2.821H67.852z M65.615,3.556
	c2.271,0,3.555,1.631,3.555,4.177c0,0.312-0.019,0.605-0.055,0.825h-6.011c0.109,1.923,1.265,3.133,2.967,3.133
	c0.845,0,1.558-0.273,2.218-0.695l0.53,0.987c-0.768,0.495-1.721,0.916-2.932,0.916c-2.381,0-4.268-1.737-4.268-4.651
	S63.582,3.556,65.615,3.556"/>
<path fill="#080505" d="M77.457,3.556c1.172,0,1.996,0.495,2.602,1.062L79.307,5.59c-0.533-0.458-1.08-0.787-1.795-0.787
	c-1.613,0-2.785,1.392-2.785,3.444c0,2.033,1.117,3.408,2.748,3.408c0.842,0,1.558-0.423,2.088-0.899l0.681,0.989
	c-0.81,0.715-1.834,1.153-2.896,1.153c-2.363,0-4.176-1.703-4.176-4.651C73.17,5.26,75.166,3.556,77.457,3.556"/>
<path fill="#080505" d="M85.131,5.003h-1.32V3.867l1.392-0.093l0.186-2.49h1.264v2.49h2.4v1.229h-2.4v4.946
	c0,1.1,0.349,1.723,1.373,1.723c0.312,0,0.716-0.128,1.009-0.238l0.293,1.135c-0.494,0.166-1.099,0.33-1.648,0.33
	c-1.904,0-2.545-1.209-2.545-2.967V5.003H85.131z"/>
<path fill="#080505" d="M93.213,3.775h1.521v5.441c0,1.666,0.494,2.381,1.666,2.381c0.916,0,1.56-0.458,2.4-1.502v-6.32h1.502v8.904
	h-1.244l-0.129-1.393h-0.057c-0.824,0.971-1.701,1.61-2.931,1.61c-1.887,0-2.729-1.208-2.729-3.479L93.213,3.775L93.213,3.775z"/>
<path fill="#080505" d="M105.48,3.775h1.244l0.129,1.612h0.056c0.604-1.117,1.52-1.832,2.528-1.832c0.386,0,0.658,0.056,0.951,0.185
	l-0.293,1.317c-0.293-0.091-0.494-0.146-0.859-0.146c-0.752,0-1.649,0.549-2.254,2.051v5.717h-1.502V3.775z"/>
<path fill="#080505" d="M116.879,11.689c0.861,0,1.576-0.422,2.438-1.188V8.026c-2.985,0.364-3.993,1.1-3.993,2.233
	C115.322,11.268,116,11.689,116.879,11.689 M119.316,7.037c0-1.138-0.385-2.236-1.834-2.236c-1.043,0-1.959,0.477-2.653,0.953
	l-0.605-1.043c0.824-0.533,2.07-1.154,3.5-1.154c2.178,0,3.094,1.447,3.094,3.664v5.459h-1.246l-0.127-1.062h-0.036
	c-0.859,0.694-1.851,1.28-2.947,1.28c-1.504,0-2.621-0.934-2.621-2.526C113.838,8.43,115.523,7.459,119.316,7.037"/>
<path fill="#080505" d="M0.916,38.831c0.86,0.896,2.053,1.502,3.315,1.502c1.574,0,2.511-0.787,2.511-1.96
	c0-1.229-0.882-1.611-2.015-2.125l-1.725-0.751C1.887,35.02,0.568,34.159,0.568,32.4c0-1.832,1.613-3.188,3.791-3.188
	c1.431,0,2.695,0.604,3.535,1.483l-0.804,0.99c-0.732-0.695-1.629-1.135-2.73-1.135c-1.354,0-2.252,0.678-2.252,1.76
	c0,1.152,1.062,1.592,1.996,1.996l1.726,0.732c1.391,0.604,2.473,1.428,2.473,3.206c0,1.904-1.578,3.425-4.105,3.425
	c-1.684,0-3.149-0.695-4.194-1.777L0.916,38.831z"/>
<path fill="#080505" d="M17.133,36.34c0-1.812-0.809-2.822-2.199-2.822c-1.244,0-2.383,1.026-2.565,2.822H17.133z M14.896,32.327
	c2.271,0,3.556,1.631,3.556,4.177c0,0.312-0.019,0.604-0.056,0.825h-6.01c0.109,1.923,1.264,3.133,2.969,3.133
	c0.842,0,1.556-0.274,2.215-0.696l0.531,0.988c-0.768,0.495-1.721,0.916-2.93,0.916c-2.381,0-4.269-1.738-4.269-4.652
	C10.904,34.105,12.863,32.327,14.896,32.327"/>
<path fill="#080505" d="M21.625,32.547h1.246L23,34.158h0.055c0.604-1.116,1.521-1.832,2.529-1.832c0.385,0,0.658,0.057,0.951,0.185
	l-0.293,1.319c-0.293-0.093-0.494-0.146-0.859-0.146c-0.752,0-1.652,0.549-2.254,2.051v5.718h-1.504V32.547z"/>
<path fill="#080505" d="M33.867,35.496c0-1.299-0.845-2.068-1.89-2.068c-1.043,0-1.885,0.771-1.885,2.068
	c0,1.302,0.859,2.125,1.885,2.125C33.006,37.621,33.867,36.798,33.867,35.496 M32.201,44.512c1.702,0,2.819-0.882,2.819-1.813
	c0-0.826-0.641-1.101-1.797-1.101h-1.537c-0.35,0-0.77-0.037-1.153-0.146c-0.644,0.457-0.916,0.987-0.916,1.502
	C29.617,43.906,30.588,44.512,32.201,44.512 M29.598,41.139v-0.072c-0.438-0.274-0.787-0.752-0.787-1.446
	c0-0.752,0.513-1.338,0.972-1.648v-0.074c-0.587-0.477-1.152-1.338-1.152-2.399c0-1.941,1.537-3.17,3.35-3.17
	c0.496,0,0.938,0.092,1.267,0.221h3.096v1.154H34.51c0.42,0.401,0.732,1.082,0.732,1.832c0,1.903-1.445,3.097-3.263,3.097
	c-0.438,0-0.932-0.11-1.336-0.312c-0.311,0.274-0.567,0.568-0.567,1.062c0,0.568,0.366,0.971,1.575,0.971h1.724
	c2.067,0,3.112,0.642,3.112,2.125c0,1.648-1.737,3.078-4.508,3.078c-2.178,0-3.68-0.861-3.68-2.399
	C28.299,42.404,28.791,41.689,29.598,41.139"/>
<path fill="#080505" d="M39.139,32.547h1.504v8.904h-1.504V32.547z M38.865,29.744c0-0.587,0.459-0.974,1.045-0.974
	s1.043,0.387,1.043,0.974c0,0.567-0.457,0.971-1.043,0.971S38.865,30.312,38.865,29.744"/>
<path fill="#080505" d="M47.949,40.426c1.538,0,2.563-1.375,2.563-3.408c0-2.053-1.025-3.444-2.563-3.444
	c-1.521,0-2.564,1.393-2.564,3.444C45.385,39.051,46.428,40.426,47.949,40.426 M47.949,32.326c2.18,0,4.12,1.705,4.12,4.69
	c0,2.949-1.94,4.652-4.12,4.652c-2.181,0-4.121-1.703-4.121-4.652C43.828,34.031,45.77,32.326,47.949,32.326"/>
<path fill="#080505" d="M63.693,35.443c2.107,0,3.113-0.771,3.113-2.475c0-1.74-1.043-2.309-3.113-2.309h-1.959v4.782L63.693,35.443
	L63.693,35.443z M60.195,29.432h3.699c2.656,0,4.435,0.898,4.435,3.537c0,2.529-1.812,3.719-4.435,3.719h-2.16v4.765h-1.539V29.432z
	"/>
<path fill="#080505" d="M74.762,40.426c1.541,0,2.566-1.375,2.566-3.408c0-2.053-1.025-3.444-2.566-3.444
	c-1.52,0-2.563,1.393-2.563,3.444C72.197,39.051,73.242,40.426,74.762,40.426 M74.762,32.326c2.182,0,4.123,1.705,4.123,4.69
	c0,2.949-1.941,4.652-4.123,4.652c-2.18,0-4.121-1.703-4.121-4.652C70.641,34.031,72.582,32.326,74.762,32.326"/>
<path fill="#080505" d="M82.133,32.547h1.246l0.127,1.611h0.057c0.604-1.116,1.521-1.832,2.527-1.832
	c0.385,0,0.66,0.057,0.953,0.185L86.75,33.83c-0.295-0.093-0.496-0.146-0.861-0.146c-0.752,0-1.649,0.549-2.254,2.051v5.718h-1.502
	V32.547z"/>
<path fill="#080505" d="M90.381,33.774h-1.318V32.64l1.392-0.093l0.184-2.491H91.9v2.491h2.4v1.228h-2.4v4.946
	c0,1.1,0.351,1.724,1.375,1.724c0.312,0,0.713-0.129,1.009-0.238l0.291,1.135c-0.494,0.166-1.099,0.33-1.646,0.33
	c-1.906,0-2.547-1.209-2.547-2.967V33.774L90.381,33.774z"/>
<path fill="#080505" d="M97.273,32.547h1.502v8.904h-1.502V32.547z M97,29.744c0-0.587,0.457-0.974,1.043-0.974
	c0.588,0,1.045,0.387,1.045,0.974c0,0.567-0.457,0.971-1.045,0.971C97.457,30.715,97,30.312,97,29.744"/>
<path fill="#080505" d="M102.539,28.407h1.502v11.357c0,0.477,0.201,0.66,0.424,0.66c0.09,0,0.162,0,0.328-0.037l0.201,1.135
	c-0.201,0.094-0.457,0.146-0.859,0.146c-1.137,0-1.596-0.715-1.596-2.017V28.407z"/>
<path fill="#080505" d="M107.959,28.407h1.502v11.357c0,0.477,0.201,0.66,0.422,0.66c0.092,0,0.164,0,0.33-0.037l0.201,1.135
	c-0.201,0.094-0.457,0.146-0.861,0.146c-1.135,0-1.594-0.715-1.594-2.017V28.407z"/>
<path fill="#080505" d="M116.854,40.426c1.539,0,2.566-1.375,2.566-3.408c0-2.053-1.027-3.444-2.566-3.444
	c-1.52,0-2.563,1.393-2.563,3.444C114.289,39.051,115.334,40.426,116.854,40.426 M116.854,32.326c2.183,0,4.123,1.705,4.123,4.69
	c0,2.949-1.94,4.652-4.123,4.652c-2.18,0-4.121-1.703-4.121-4.652C112.732,34.031,114.674,32.326,116.854,32.326"/>
</svg>
