<svg xmlns="http://www.w3.org/2000/svg" width="120.977" height="46.129" viewBox="0 0 120.977 46.129"><path fill="#080505" d="M6.928 7.787l-.569-1.832a120.82 120.82 0 0 1-1.19-4.047h-.073c-.385 1.391-.77 2.711-1.188 4.047L3.32 7.787h3.608zm.384 1.229H2.936L1.779 12.68H.223L4.289.66h1.723l4.066 12.02H8.467L7.312 9.016zm6.774-5.241h1.244l.129 1.612h.055c.604-1.117 1.521-1.832 2.529-1.832.385 0 .658.056.951.185l-.293 1.317c-.293-.091-.494-.146-.859-.146-.752 0-1.65.549-2.254 2.051v5.717h-1.502V3.775zm12.031 7.86c.821 0 1.539-.402 2.271-1.229V5.755c-.752-.679-1.428-.935-2.162-.935-1.428 0-2.563 1.373-2.563 3.407-.001 2.126.896 3.408 2.454 3.408m-.146-8.079c1.025 0 1.74.367 2.547 1.062h.035l.146-.843h1.211v12.66h-1.521v-3.17l.074-1.574c-.715.658-1.65 1.207-2.676 1.207-2.236 0-3.685-1.686-3.685-4.651.002-2.896 1.834-4.691 3.869-4.691m8.99.219h1.52v5.441c0 1.666.494 2.381 1.668 2.381.916 0 1.558-.458 2.4-1.502v-6.32h1.502v8.904h-1.246l-.129-1.393h-.055c-.824.971-1.703 1.61-2.933 1.61-1.887 0-2.729-1.208-2.729-3.479l.002-5.642zm12.271 0h1.502v8.904h-1.502V3.775zM46.959.973c0-.586.457-.973 1.043-.973s1.045.387 1.045.973c0 .568-.459.971-1.045.971s-1.043-.403-1.043-.971m7.275 4.03h-1.317V3.867l1.391-.093.187-2.49h1.262v2.49h2.399v1.229h-2.399v4.946c0 1.1.35 1.723 1.375 1.723.311 0 .713-.128 1.008-.238l.293 1.135c-.494.166-1.098.33-1.647.33-1.904 0-2.548-1.209-2.548-2.967V5.003h-.004zm13.618 2.565c0-1.812-.809-2.821-2.199-2.821-1.245 0-2.383 1.025-2.565 2.821h4.764zm-2.237-4.012c2.271 0 3.555 1.631 3.555 4.177 0 .312-.019.605-.055.825h-6.011c.109 1.923 1.265 3.133 2.967 3.133.845 0 1.558-.273 2.218-.695l.53.987c-.768.495-1.721.916-2.932.916-2.381 0-4.268-1.737-4.268-4.651s1.963-4.692 3.996-4.692m11.842 0c1.172 0 1.996.495 2.602 1.062l-.752.972c-.533-.458-1.08-.787-1.795-.787-1.613 0-2.785 1.392-2.785 3.444 0 2.033 1.117 3.408 2.748 3.408.842 0 1.558-.423 2.088-.899l.681.989c-.81.715-1.834 1.153-2.896 1.153-2.363 0-4.176-1.703-4.176-4.651-.002-2.987 1.994-4.691 4.285-4.691m7.674 1.447h-1.32V3.867l1.392-.093.186-2.49h1.264v2.49h2.4v1.229h-2.4v4.946c0 1.1.349 1.723 1.373 1.723.312 0 .716-.128 1.009-.238l.293 1.135c-.494.166-1.099.33-1.648.33-1.904 0-2.545-1.209-2.545-2.967V5.003h-.004zm8.082-1.228h1.521v5.441c0 1.666.494 2.381 1.666 2.381.916 0 1.56-.458 2.4-1.502v-6.32h1.502v8.904h-1.244l-.129-1.393h-.057c-.824.971-1.701 1.61-2.931 1.61-1.887 0-2.729-1.208-2.729-3.479l.001-5.642zm12.267 0h1.244l.129 1.612h.056c.604-1.117 1.52-1.832 2.528-1.832.386 0 .658.056.951.185l-.293 1.317c-.293-.091-.494-.146-.859-.146-.752 0-1.649.549-2.254 2.051v5.717h-1.502V3.775zm11.399 7.914c.861 0 1.576-.422 2.438-1.188V8.026c-2.985.364-3.993 1.1-3.993 2.233-.002 1.009.676 1.43 1.555 1.43m2.437-4.652c0-1.138-.385-2.236-1.834-2.236-1.043 0-1.959.477-2.653.953l-.605-1.043c.824-.533 2.07-1.154 3.5-1.154 2.178 0 3.094 1.447 3.094 3.664v5.459h-1.246l-.127-1.062h-.036c-.859.694-1.851 1.28-2.947 1.28-1.504 0-2.621-.934-2.621-2.526-.003-1.942 1.682-2.913 5.475-3.335M.916 38.831c.86.896 2.053 1.502 3.315 1.502 1.574 0 2.511-.787 2.511-1.96 0-1.229-.882-1.611-2.015-2.125l-1.725-.751C1.887 35.02.568 34.159.568 32.4c0-1.832 1.613-3.188 3.791-3.188 1.431 0 2.695.604 3.535 1.483l-.804.99c-.732-.695-1.629-1.135-2.73-1.135-1.354 0-2.252.678-2.252 1.76 0 1.152 1.062 1.592 1.996 1.996l1.726.732c1.391.604 2.473 1.428 2.473 3.206 0 1.904-1.578 3.425-4.105 3.425a5.782 5.782 0 0 1-4.194-1.777l.912-1.061zm16.217-2.491c0-1.812-.809-2.822-2.199-2.822-1.244 0-2.383 1.026-2.565 2.822h4.764zm-2.237-4.013c2.271 0 3.556 1.631 3.556 4.177 0 .312-.019.604-.056.825h-6.01c.109 1.923 1.264 3.133 2.969 3.133.842 0 1.556-.274 2.215-.696l.531.988c-.768.495-1.721.916-2.93.916-2.381 0-4.269-1.738-4.269-4.652.002-2.913 1.961-4.691 3.994-4.691m6.729.22h1.246L23 34.158h.055c.604-1.116 1.521-1.832 2.529-1.832.385 0 .658.057.951.185l-.293 1.319a2.453 2.453 0 0 0-.859-.146c-.752 0-1.652.549-2.254 2.051v5.718h-1.504v-8.906zm12.242 2.949c0-1.299-.845-2.068-1.89-2.068-1.043 0-1.885.771-1.885 2.068 0 1.302.859 2.125 1.885 2.125 1.029 0 1.89-.823 1.89-2.125m-1.666 9.016c1.702 0 2.819-.882 2.819-1.813 0-.826-.641-1.101-1.797-1.101h-1.537c-.35 0-.77-.037-1.153-.146-.644.457-.916.987-.916 1.502 0 .952.971 1.558 2.584 1.558m-2.603-3.373v-.072a1.646 1.646 0 0 1-.787-1.446c0-.752.513-1.338.972-1.648v-.074c-.587-.477-1.152-1.338-1.152-2.399 0-1.941 1.537-3.17 3.35-3.17.496 0 .938.092 1.267.221h3.096v1.154H34.51c.42.401.732 1.082.732 1.832 0 1.903-1.445 3.097-3.263 3.097-.438 0-.932-.11-1.336-.312-.311.274-.567.568-.567 1.062 0 .568.366.971 1.575.971h1.724c2.067 0 3.112.642 3.112 2.125 0 1.648-1.737 3.078-4.508 3.078-2.178 0-3.68-.861-3.68-2.399 0-.755.492-1.47 1.299-2.02m9.541-8.592h1.504v8.904h-1.504v-8.904zm-.274-2.803c0-.587.459-.974 1.045-.974s1.043.387 1.043.974c0 .567-.457.971-1.043.971s-1.045-.403-1.045-.971m9.084 10.682c1.538 0 2.563-1.375 2.563-3.408 0-2.053-1.025-3.444-2.563-3.444-1.521 0-2.564 1.393-2.564 3.444 0 2.033 1.043 3.408 2.564 3.408m0-8.1c2.18 0 4.12 1.705 4.12 4.69 0 2.949-1.94 4.652-4.12 4.652-2.181 0-4.121-1.703-4.121-4.652 0-2.985 1.942-4.69 4.121-4.69m15.744 3.117c2.107 0 3.113-.771 3.113-2.475 0-1.74-1.043-2.309-3.113-2.309h-1.959v4.782l1.959.002zm-3.498-6.011h3.699c2.656 0 4.435.898 4.435 3.537 0 2.529-1.812 3.719-4.435 3.719h-2.16v4.765h-1.539V29.432zm14.567 10.994c1.541 0 2.566-1.375 2.566-3.408 0-2.053-1.025-3.444-2.566-3.444-1.52 0-2.563 1.393-2.563 3.444-.002 2.033 1.043 3.408 2.563 3.408m0-8.1c2.182 0 4.123 1.705 4.123 4.69 0 2.949-1.941 4.652-4.123 4.652-2.18 0-4.121-1.703-4.121-4.652 0-2.985 1.941-4.69 4.121-4.69m7.371.221h1.246l.127 1.611h.057c.604-1.116 1.521-1.832 2.527-1.832.385 0 .66.057.953.185l-.293 1.319a2.473 2.473 0 0 0-.861-.146c-.752 0-1.649.549-2.254 2.051v5.718h-1.502v-8.906zm8.248 1.227h-1.318V32.64l1.392-.093.184-2.491H91.9v2.491h2.4v1.228h-2.4v4.946c0 1.1.351 1.724 1.375 1.724.312 0 .713-.129 1.009-.238l.291 1.135c-.494.166-1.099.33-1.646.33-1.906 0-2.547-1.209-2.547-2.967v-4.931h-.001zm6.892-1.227h1.502v8.904h-1.502v-8.904zM97 29.744c0-.587.457-.974 1.043-.974.588 0 1.045.387 1.045.974 0 .567-.457.971-1.045.971-.586 0-1.043-.403-1.043-.971m5.539-1.337h1.502v11.357c0 .477.201.66.424.66.09 0 .162 0 .328-.037l.201 1.135c-.201.094-.457.146-.859.146-1.137 0-1.596-.715-1.596-2.017V28.407zm5.42 0h1.502v11.357c0 .477.201.66.422.66.092 0 .164 0 .33-.037l.201 1.135c-.201.094-.457.146-.861.146-1.135 0-1.594-.715-1.594-2.017V28.407zm8.895 12.019c1.539 0 2.566-1.375 2.566-3.408 0-2.053-1.027-3.444-2.566-3.444-1.52 0-2.563 1.393-2.563 3.444-.002 2.033 1.043 3.408 2.563 3.408m0-8.1c2.183 0 4.123 1.705 4.123 4.69 0 2.949-1.94 4.652-4.123 4.652-2.18 0-4.121-1.703-4.121-4.652-.001-2.985 1.941-4.69 4.121-4.69"/></svg>