<svg xmlns="http://www.w3.org/2000/svg" width="163.014" height="85.869" viewBox="0 0 163.014 85.869"><path fill="#FFF" d="M51.509 25.222h16.146V76.47H51.509V25.222zM50.108 76.47H33.953V25.222h16.155V76.47zm-17.558 0H16.405V25.222H32.55V76.47zm36.504-52.652H15.003v54.051h54.052V23.818z"/><path fill="#080505" d="M33.953 42.795h51.249V58.94H33.953V42.795zm51.249-18.959H33.953V7.69h51.249v16.146zm-51.249 1.4h51.249v16.156H33.953V25.236zm112.374 10.367c2.273 0 3.361-.832 3.361-2.667 0-1.879-1.127-2.494-3.361-2.494h-2.115v5.162h2.115zm-3.78-6.488h3.998c2.867 0 4.785.969 4.785 3.819 0 2.728-1.959 4.013-4.785 4.013h-2.334v5.143h-1.664V29.115zm-18.201 10.148c.934.967 2.217 1.62 3.579 1.62 1.701 0 2.709-.852 2.709-2.116 0-1.326-.948-1.738-2.174-2.293l-1.86-.812c-1.205-.517-2.629-1.442-2.629-3.342 0-1.978 1.741-3.441 4.094-3.441 1.543 0 2.908.652 3.815 1.601l-.868 1.069c-.791-.752-1.761-1.227-2.947-1.227-1.465 0-2.433.733-2.433 1.899 0 1.246 1.148 1.719 2.156 2.153l1.857.793c1.502.652 2.672 1.541 2.672 3.461 0 2.057-1.701 3.695-4.433 3.695a6.246 6.246 0 0 1-4.528-1.918l.99-1.142zm-13.437-2.453l-.613-1.979a127.196 127.196 0 0 1-1.287-4.369h-.077a131.865 131.865 0 0 1-1.285 4.369l-.633 1.979h3.895zm.416 1.326h-4.729l-1.246 3.954h-1.679l4.388-12.975h1.86l4.388 12.975h-1.736l-1.246-3.954zM32.55 60.343H86.6V6.291H32.55v54.052z"/></svg>