<svg xmlns="http://www.w3.org/2000/svg" width="93" height="40" viewBox="45.007 24.435 93 40"><path d="M127.039 54.097c0-1.345.687-2.257 1.683-2.257 1.008 0 1.682.912 1.682 2.257 0 1.331-.674 2.231-1.682 2.231-.998.001-1.683-.9-1.683-2.231m-1.018 0c0 1.934 1.27 3.047 2.699 3.047 1.429 0 2.698-1.113 2.698-3.047 0-1.957-1.27-3.072-2.698-3.072-1.429-.001-2.699 1.115-2.699 3.072m-3.229 1.728c0 .852.299 1.318 1.043 1.318.265 0 .433-.035.564-.097l-.133-.741c-.107.022-.156.022-.218.022-.143 0-.274-.119-.274-.433v-7.438h-.982v7.369zm-3.66 0c0 .852.302 1.318 1.043 1.318.265 0 .433-.035.564-.097l-.133-.741c-.107.022-.156.022-.217.022-.144 0-.275-.119-.275-.433v-7.438h-.982v7.369zM115.582 57h.982v-5.832h-.982V57zm.501-7.033c.385 0 .687-.264.687-.635 0-.383-.302-.635-.687-.635-.383 0-.682.252-.682.635.001.372.3.635.682.635m-4.99 5.235c0 1.15.421 1.941 1.666 1.941.361 0 .757-.107 1.08-.216l-.19-.743c-.191.071-.455.155-.66.155-.672 0-.9-.407-.9-1.127v-3.241h1.572v-.804h-1.572v-1.631h-.825l-.121 1.631-.91.062v.742h.862l-.002 3.231zM106.162 57h.982v-3.744c.396-.983.983-1.344 1.477-1.344.24 0 .371.035.562.096l.192-.862a1.453 1.453 0 0 0-.625-.121c-.66 0-1.26.469-1.655 1.199h-.035l-.084-1.056h-.814V57zm-6.518-2.903c0-1.345.684-2.257 1.682-2.257 1.008 0 1.68.912 1.68 2.257 0 1.331-.672 2.231-1.68 2.231-.998.001-1.682-.9-1.682-2.231m-1.019 0c0 1.934 1.271 3.047 2.701 3.047 1.428 0 2.699-1.113 2.699-3.047 0-1.957-1.271-3.072-2.699-3.072-1.43-.001-2.701 1.115-2.701 3.072m-5.665-1.032v-3.133h1.283c1.357 0 2.041.37 2.041 1.512 0 1.117-.66 1.621-2.041 1.621H92.96zM91.953 57h1.008v-3.121h1.416c1.717 0 2.904-.778 2.904-2.437 0-1.729-1.164-2.313-2.904-2.313h-2.424V57zm-9.6-2.903c0-1.345.684-2.257 1.68-2.257 1.008 0 1.68.912 1.68 2.257 0 1.331-.672 2.231-1.68 2.231-.996.001-1.68-.9-1.68-2.231m-1.02 0c0 1.934 1.271 3.047 2.699 3.047s2.699-1.113 2.699-3.047c0-1.957-1.271-3.072-2.699-3.072s-2.699 1.115-2.699 3.072M78.214 57h.982v-5.832h-.982V57zm.502-7.033c.384 0 .685-.264.685-.635 0-.383-.301-.635-.685-.635-.383 0-.682.252-.682.635.001.372.299.635.682.635m-5.183 4.526c-.673 0-1.236-.539-1.236-1.393 0-.853.552-1.355 1.236-1.355.684 0 1.237.504 1.237 1.355.001.854-.565 1.393-1.237 1.393m-2.41 3.623c0 1.01.981 1.572 2.41 1.572 1.812 0 2.951-.937 2.951-2.017 0-.973-.684-1.391-2.039-1.391h-1.128c-.793 0-1.033-.267-1.033-.64 0-.322.168-.516.372-.694.264.133.589.204.877.204 1.189 0 2.135-.778 2.135-2.028 0-.492-.203-.937-.479-1.199h1.199v-.756h-2.027a2.326 2.326 0 0 0-.828-.146c-1.189 0-2.195.806-2.195 2.076 0 .697.371 1.262.754 1.572v.049c-.299.203-.633.586-.633 1.078 0 .457.228.77.515.949v.047c-.529.365-.851.832-.851 1.324m.861-.131c0-.338.18-.687.6-.984.252.072.529.096.758.096h1.009c.756 0 1.177.18 1.177.719 0 .613-.733 1.189-1.849 1.189-1.059-.001-1.695-.395-1.695-1.02M66.922 57h.982v-3.744c.396-.983.984-1.344 1.477-1.344.239 0 .371.035.563.096l.191-.862a1.447 1.447 0 0 0-.625-.121c-.658 0-1.26.469-1.654 1.199h-.036l-.083-1.056h-.815V57zm-6.026-3.347c.119-1.178.864-1.851 1.681-1.851.913 0 1.441.66 1.441 1.851h-3.122zm-.958.444c0 1.907 1.234 3.047 2.795 3.047.793 0 1.417-.275 1.92-.599l-.349-.647c-.431.274-.898.455-1.451.455-1.116 0-1.873-.793-1.945-2.054h3.936c.024-.143.037-.336.037-.539 0-1.668-.838-2.735-2.327-2.735-1.333-.001-2.616 1.163-2.616 3.072m-7.02 1.884a3.797 3.797 0 0 0 2.748 1.162c1.656 0 2.688-.994 2.688-2.242 0-1.164-.707-1.705-1.619-2.103l-1.129-.479c-.612-.266-1.31-.553-1.31-1.309 0-.709.588-1.152 1.478-1.152.721 0 1.309.287 1.789.744l.526-.647a3.214 3.214 0 0 0-2.315-.972c-1.428 0-2.482.888-2.482 2.089 0 1.149.862 1.715 1.595 2.026l1.129.492c.743.336 1.319.588 1.319 1.393 0 .769-.61 1.283-1.645 1.283-.828 0-1.607-.395-2.171-.981l-.601.696zm74.925-19.564c0-.744.66-1.225 2.617-1.465v1.621c-.563.504-1.03.779-1.596.779-.577 0-1.021-.275-1.021-.935m-.97.072c0 1.045.73 1.654 1.715 1.654.722 0 1.369-.383 1.935-.838h.022l.084.693h.814v-3.576c0-1.451-.599-2.396-2.025-2.396-.938 0-1.754.406-2.293.754l.396.684c.457-.312 1.057-.625 1.742-.625.946 0 1.198.721 1.198 1.465-2.485.277-3.588.911-3.588 2.185m-5.159 1.51h.98v-3.744c.396-.982.984-1.342 1.477-1.342.24 0 .373.035.564.094l.19-.861a1.434 1.434 0 0 0-.622-.119c-.66 0-1.261.467-1.656 1.197h-.037l-.084-1.055h-.812v5.83zm-8.197-2.133c0 1.486.551 2.277 1.787 2.277.805 0 1.381-.42 1.922-1.055h.034l.085.91h.813v-5.83h-.982v4.141c-.553.684-.973.984-1.571.984-.771 0-1.095-.469-1.095-1.561v-3.564h-.993v3.698zm-5.316.336c0 1.15.42 1.941 1.666 1.941.361 0 .758-.107 1.08-.215l-.191-.744c-.19.072-.455.156-.659.156-.673 0-.9-.408-.9-1.127v-3.242h1.572v-.803h-1.572v-1.631h-.826l-.119 1.631-.912.061v.742h.863l-.002 3.231zm-7.655-1.106c0 1.934 1.187 3.047 2.732 3.047.697 0 1.369-.287 1.896-.754l-.442-.648c-.349.312-.816.588-1.369.588-1.066 0-1.799-.9-1.799-2.232 0-1.344.768-2.258 1.824-2.258.467 0 .827.217 1.176.518l.492-.637c-.396-.371-.938-.693-1.705-.693-1.5-.001-2.805 1.112-2.805 3.069m-6.578-.443c.119-1.178.865-1.85 1.681-1.85.914 0 1.44.66 1.44 1.85h-3.121zm-.959.443c0 1.908 1.234 3.047 2.796 3.047.793 0 1.418-.275 1.92-.598l-.349-.648c-.432.275-.897.455-1.451.455-1.116 0-1.873-.793-1.944-2.053h3.936c.023-.143.035-.336.035-.539 0-1.668-.838-2.734-2.326-2.734-1.334 0-2.617 1.162-2.617 3.07m-4.92 1.106c0 1.15.42 1.941 1.666 1.941.359 0 .756-.107 1.08-.215l-.19-.744c-.193.072-.457.156-.66.156-.672 0-.9-.408-.9-1.127v-3.242h1.572v-.803h-1.572v-1.631h-.826l-.118 1.631-.912.061v.742h.862l-.002 3.231zm-4.704 1.797h.98v-5.83h-.98v5.83zm.503-7.032c.385 0 .684-.264.684-.635 0-.383-.299-.635-.684-.635-.384 0-.683.252-.683.635.002.372.3.635.683.635m-8.699 4.899c0 1.486.551 2.277 1.787 2.277.805 0 1.381-.42 1.922-1.055h.035l.084.91h.815v-5.83h-.983v4.141c-.552.684-.972.984-1.572.984-.769 0-1.091-.469-1.091-1.561v-3.564h-.996l-.001 3.698zm-7.5-.782c0-1.332.743-2.234 1.68-2.234.48 0 .925.17 1.416.613v3.049c-.479.541-.947.805-1.487.805-1.021 0-1.609-.84-1.609-2.233m-1.019.012c0 1.945.947 3.047 2.411 3.047.673 0 1.284-.359 1.753-.791l-.049 1.031v2.076h.996v-8.291h-.791l-.096.551h-.025c-.527-.455-.995-.693-1.668-.693-1.332 0-2.531 1.174-2.531 3.07m-5.208 2.903h.983v-3.744c.396-.982.983-1.342 1.476-1.342.239 0 .372.035.563.094l.191-.861a1.443 1.443 0 0 0-.624-.119c-.659 0-1.26.467-1.655 1.197h-.035l-.084-1.055h-.815v5.83zm-3.625 0h1.057l-2.662-7.869h-1.129l-2.664 7.869h1.021l.756-2.4h2.867l.754 2.4zm-3.371-3.202l.385-1.201c.275-.877.527-1.74.779-2.652h.049c.252.912.504 1.775.779 2.652l.37 1.201h-2.362z" fill="#FFF"/></svg>