<?xml version="1.0" encoding="utf-8"?>
<!-- Generator: Adobe Illustrator 16.0.0, SVG Export Plug-In . SVG Version: 6.00 Build 0)  -->
<!DOCTYPE svg PUBLIC "-//W3C//DTD SVG 1.1//EN" "http://www.w3.org/Graphics/SVG/1.1/DTD/svg11.dtd">
<svg version="1.1" id="Layer_1" xmlns="http://www.w3.org/2000/svg" xmlns:xlink="http://www.w3.org/1999/xlink" x="0px" y="0px"
	 width="163.014px" height="85.869px" viewBox="0 0 163.014 85.869" enable-background="new 0 0 163.014 85.869"
	 xml:space="preserve">
<path fill="#FFFFFF" d="M51.509,25.222h16.146V76.47H51.509V25.222z M50.108,76.47H33.953V25.222h16.155V76.47z M32.55,76.47H16.405
	V25.222H32.55V76.47z M69.054,23.818H15.003v54.051h54.052V23.818z"/>
<g>
	<path fill="#080505" d="M33.953,42.795h51.249V58.94H33.953V42.795z M85.202,23.836H33.953V7.69h51.249V23.836z M33.953,25.236
		h51.249v16.156H33.953V25.236z M146.327,35.603c2.273,0,3.361-0.832,3.361-2.667c0-1.879-1.127-2.494-3.361-2.494h-2.115v5.162
		H146.327z M142.547,29.115h3.998c2.867,0,4.785,0.969,4.785,3.819c0,2.728-1.959,4.013-4.785,4.013h-2.334v5.143h-1.664V29.115z
		 M124.346,39.263c0.934,0.967,2.217,1.62,3.579,1.62c1.701,0,2.709-0.852,2.709-2.116c0-1.326-0.948-1.738-2.174-2.293l-1.86-0.812
		c-1.205-0.517-2.629-1.442-2.629-3.342c0-1.978,1.741-3.441,4.094-3.441c1.543,0,2.908,0.652,3.815,1.601l-0.868,1.069
		c-0.791-0.752-1.761-1.227-2.947-1.227c-1.465,0-2.433,0.733-2.433,1.899c0,1.246,1.148,1.719,2.156,2.153l1.857,0.793
		c1.502,0.652,2.672,1.541,2.672,3.461c0,2.057-1.701,3.695-4.433,3.695c-1.817,0-3.399-0.75-4.528-1.918L124.346,39.263z
		 M110.909,36.81l-0.613-1.979c-0.455-1.442-0.871-2.867-1.287-4.369h-0.077c-0.416,1.502-0.832,2.927-1.285,4.369l-0.633,1.979
		H110.909z M111.325,38.136h-4.729l-1.246,3.954h-1.679l4.388-12.975h1.86l4.388,12.975h-1.736L111.325,38.136z M32.55,60.343H86.6
		V6.291H32.55V60.343z"/>
</g>
</svg>
