<svg xmlns="http://www.w3.org/2000/svg" width="310" height="310" viewBox="0 0 310 310"><path fill="#080505" d="M291.83 291.829H18.17V18.171h273.66v273.658zM31.682 278.318h246.636V31.683H31.682v246.635z"/><path fill="#080505" d="M253.695 93.782a80.957 80.957 0 0 1-23.259 6.377c8.362-5.012 14.783-12.948 17.806-22.405a81.064 81.064 0 0 1-25.716 9.827c-7.387-7.871-17.912-12.789-29.559-12.789-22.366 0-40.498 18.132-40.498 40.496 0 3.174.358 6.265 1.048 9.229-33.657-1.689-63.497-17.811-83.47-42.312a40.306 40.306 0 0 0-5.483 20.359c0 14.049 7.15 26.445 18.016 33.707a40.335 40.335 0 0 1-18.343-5.065 28.64 28.64 0 0 0-.004.509c0 19.621 13.959 35.989 32.485 39.709a40.572 40.572 0 0 1-18.288.694c5.153 16.089 20.109 27.797 37.83 28.125-13.86 10.861-31.321 17.335-50.294 17.335-3.269 0-6.492-.192-9.66-.565 17.922 11.49 39.208 18.194 62.078 18.194 74.489 0 115.222-61.708 115.222-115.223 0-1.756-.039-3.502-.117-5.239a82.297 82.297 0 0 0 20.206-20.963z"/></svg>